<svg width="39" height="28" viewBox="0 0 39 28" xmlns="http://www.w3.org/2000/svg">
    <g fill="#404040" fill-rule="evenodd">s
        <path d="M24.631 13.624c1.972-.945 4.072-3.498 2.79-5.025-1.283-1.527-2.623 1.834-4.284 3.227l-3 2.516c1.682.151 3.18-.088 4.494-.718zM17.313 10.195c-1.972-.945-2.383-5.345 0-5.345s-.166 2.154 1.495 3.547c1.107.929 1.403 2.693.888 5.292-.274-1.7-1.068-2.864-2.383-3.494z"/>
        <path d="M15.352 13.624c-1.971-.945-4.188-5.955-1.836-6.574 2.351-.62 1.17 2.693 3.03 4.996 1.24 1.536 2.34 2.301 3.301 2.296-1.682.151-3.18-.088-4.495-.718zM23.044 9.95c1.972-.945 4.188-5.955 1.837-6.574-2.352-.62-1.171 2.693-3.03 4.996-1.24 1.536-1.726 3.175-1.458 4.918.453-1.597 1.337-2.71 2.651-3.34z"/>
        <path d="M13.242 14.762c-3.012-.282-8.196-.171-8.196-2.693 0-2.522 3.416-2.204 4.449 0 .688 1.468 4.32 2.47 10.898 3.006-2.76-.021-5.143-.126-7.15-.313zM11.662 17.772c-2.132.697-9.913 1.905-10.725-.698-.812-2.602 2.318-3.206 3.301-1.546.656 1.108 5.4 1.108 14.23 0-3.116 1.031-5.385 1.779-6.806 2.244zM27.637 15.58c2.242.074 9.967 1.6 9.84 4.322-.128 2.723-3.276 2.221-3.632.325-.237-1.265-4.694-2.886-13.372-4.865 3.281.097 5.67.17 7.164.219zM20.921 10.002c.717-1.495 1.076-2.806 1.076-3.935 0-1.693-.448-3.065-1-3.065-.553 0-1 1.372-1 3.065 0 1.129.308 2.44.924 3.935zM33.92 13.866c3.117 1.016 5.681.89 4.951-1.211-.73-2.1-6.844-2.019-9.429-.762-1.723.837-4.205 1.873-7.445 3.109 5.871-1.435 9.846-1.813 11.924-1.136z"/>
        <path d="M34.487 10.02c1.288.898 3.996.15 3.296-1.77-.387-1.065-1.684-1.384-3.296-1.027-1.186.262-2.345 1.028-3.157 1.649-1.215.927-2.659 2.118-4.331 3.573 4.133-2.216 6.63-3.024 7.488-2.425zM9.41 7.27c-.13-2.289-1.064-3.715-2.63-2.294-1.567 1.42.47 4.926 2.378 5.828 1.272.601 2.958 1.547 5.06 2.839C11.1 10.92 9.497 8.797 9.41 7.27zM26.997 8.002c1.635-1.793 2.58-2.984 2.835-3.572.383-.883.107-2.428-.93-2.428-1.037 0-1.328.823-.877 2.04.301.811-.042 2.131-1.028 3.96zM14.688 6.184c-.87-2.647-1.125-4.276-.767-4.887.536-.917 1.102-1.2 1.754-.679.652.52.355 1.498-.463 1.838-.546.226-.72 1.469-.524 3.728z"/>
    </g>
</svg>
