<svg width="182" height="135" xmlns="http://www.w3.org/2000/svg">
    <g fill="none" fill-rule="evenodd">
        <path d="M1 80.714c75.907 35.917 114.313 22.494 115.217-40.271" stroke="#979797"/>
        <path d="M106.536 82.23c17.446-11.573 30.647-12.355 39.602-2.347" stroke="#979797"/>
        <g fill="#FFF">
            <path d="M126.408 31.375c3.909-1.878 8.072-6.953 5.53-9.99-2.542-3.035-5.2 3.647-8.494 6.416l-5.949 5.002c3.336.3 6.306-.176 8.913-1.428zM111.897 24.558c-3.91-1.878-4.726-10.625 0-10.625 4.725 0-.33 4.282 2.964 7.051 2.195 1.846 2.783 5.353 1.761 10.52-.544-3.379-2.119-5.694-4.725-6.946z"/>
            <path d="M108.01 31.375c-3.91-1.878-8.305-11.838-3.643-13.07 4.663-1.23 2.322 5.354 6.01 9.934 2.458 3.053 4.64 4.574 6.544 4.564-3.335.3-6.306-.176-8.912-1.428zM123.26 24.071c3.91-1.878 8.305-11.838 3.642-13.07-4.662-1.23-2.322 5.354-6.01 9.934-2.457 3.053-3.42 6.311-2.888 9.776.898-3.175 2.65-5.388 5.256-6.64z"/>
            <path d="M103.636 34.784c-5.973-.56-16.544-3.199-16.062-6.5.483-3.302 8.48-3.302 10.43 0 1.3 2.2 7.967 4.193 20 5.977-5.597.721-10.387.896-14.368.523z"/>
            <path d="M103.125 39.622c-4.227 1.386-19.655 3.786-21.266-1.387-1.61-5.173 4.596-6.375 6.546-3.073 1.3 2.2 10.705 2.2 28.217 0a5130.27 5130.27 0 0 1-13.497 4.46zM132.367 35.266c4.445.145 19.762 3.178 19.51 8.591-.252 5.413-6.494 4.416-7.2.645-.47-2.514-9.309-5.738-26.515-9.67 6.507.192 11.242.337 14.205.434zM118.162 23.076c2.09-3.086 3.136-5.795 3.136-8.125 0-3.496-1.306-6.33-2.916-6.33-1.61 0-2.916 2.834-2.916 6.33 0 2.33.899 5.039 2.696 8.125zM145.045 31.685c6.112 2.036 11.14 1.782 9.71-2.428-1.432-4.209-13.425-4.045-18.494-1.527-3.38 1.678-8.247 3.755-14.603 6.23 11.516-2.874 19.312-3.633 23.387-2.275z"/>
            <path d="M145.871 24.95c4.357 1.313 7.648.54 6.061-3.35-1.586-3.891-9.503-2.473-12.478.477-1.983 1.966-4.891 4.471-8.724 7.516 7.19-3.97 12.237-5.518 15.141-4.643zM96.227 18.744c-.26-4.551-2.11-7.386-5.216-4.561-3.106 2.824.932 9.794 4.715 11.586 2.522 1.195 5.867 3.076 10.033 5.644-6.182-5.412-9.36-9.635-9.532-12.669zM125.712 23.993c5.28-5.166 8.107-8.959 8.481-11.379.562-3.63 1.204-7.679-1.587-7.679s-2.166 2.246-2.166 5.877c0 2.42-1.576 6.814-4.728 13.181zM114.373 14.335c-.682-4.535-.66-7.427.066-8.673 1.09-1.87 2.296-3.96 3.686-2.792 1.39 1.168.231 1.918-1.137 3.552-.913 1.09-1.784 3.727-2.615 7.913z"/>
        </g>
        <g fill="#FFF">
            <path d="M151.884 86.62c.948 3.392 4.414 7.438 7.196 5.831 2.783-1.606-2.177-4.674-3.924-7.7l-3.154-5.463c-.71 2.626-.75 5.07-.118 7.332zM159.375 75.97c2.051-2.864 9.15-2.285 8.484 1.496-.667 3.78-3.373-.867-6.049 1.378-1.784 1.497-4.667 1.473-8.648-.072 2.774.04 4.845-.893 6.213-2.802z"/>
            <path d="M154.48 71.9c2.051-2.864 10.624-4.979 10.95-1.075.325 3.904-4.603 1.105-8.78 3.41-2.784 1.537-4.307 3.068-4.567 4.594.23-2.71 1.03-5.02 2.397-6.93zM158.16 85.13c.949 3.392 8.281 8.311 9.922 4.754 1.641-3.557-3.947-2.612-7.083-6.207-2.091-2.396-4.557-3.625-7.399-3.687 2.408 1.165 3.928 2.879 4.56 5.14z"/>
            <path d="M152.375 67.92c1.29-4.7 4.888-12.787 7.456-11.935 2.569.85 1.44 7.25-1.471 8.345-1.941.73-4.472 5.783-7.594 15.16.213-4.58.75-8.437 1.61-11.57zM144.95 68.05c-1.591-3.243-5.842-14.573-1.87-16.453 3.971-1.88 6.217 2.166 3.787 4.107-1.62 1.295-.557 8.862 3.19 22.702a4174.1 4174.1 0 0 1-5.107-10.355zM147.937 90.84c-.744 3.536-5.326 15.365-9.612 14.4-4.287-.963-2.61-5.817.5-5.85 2.074-.023 5.895-6.64 11.463-19.854-1.072 5.179-1.856 8.947-2.351 11.304zM159.5 81.144c2.136 2.135 4.124 3.365 5.965 3.69 2.761.486 5.187-.184 5.419-1.498.232-1.313-1.819-2.773-4.58-3.26-1.84-.324-4.109.032-6.805 1.068zM149.209 101.514c-2.432 4.607-2.944 8.659.505 8.088 3.449-.571 5.011-10.175 3.784-14.568-.819-2.928-1.736-7.1-2.75-12.514.595 9.591.082 15.923-1.54 18.994z"/>
            <path d="M154.268 103.097c-1.662 3.301-1.51 6.043 1.82 5.322 3.331-.722 3.316-7.256 1.38-10.051-1.29-1.864-2.88-4.543-4.77-8.039 2.155 6.312 2.679 10.568 1.57 12.768zM166.228 64.25c3.67.434 6.195-.647 4.377-3.53-1.817-2.883-7.951-.634-9.916 2.14-1.31 1.85-3.284 4.262-5.922 7.233 5.193-4.184 9.014-6.132 11.46-5.843zM157.851 87.222c3.386 4.926 6.02 7.709 7.9 8.348 2.82.958 5.964 2.038 6.356-.182.391-2.22-1.49-2.038-4.39-2.55-1.934-.34-5.222-2.213-9.866-5.616zM167.188 79.39c3.718.093 6.023.518 6.916 1.274 1.34 1.135 2.839 2.395 1.71 3.342-1.13.948-1.564-.085-2.676-1.41-.742-.883-2.725-1.952-5.95-3.206z"/>
        </g>
        <g fill="#FFF">
            <path d="M83.277 68.199c3.505-.345 8.091-3.055 6.992-6.074-1.099-3.02-4.981 1.332-8.264 2.527l-5.928 2.158c2.463 1.156 4.863 1.619 7.2 1.389zM74.089 58.973c-2.464-2.518-.661-9.409 2.946-8.096 3.608 1.313-1.439 3.17.308 6.196 1.164 2.017.64 4.852-1.573 8.505.522-2.725-.038-4.927-1.681-6.605z"/>
            <path d="M69.23 63.086c-2.463-2.517-3.057-11.327.844-10.97 3.901.358.289 4.725 1.834 9.239 1.03 3.009 2.273 4.774 3.73 5.295-2.629-.697-4.765-1.885-6.407-3.564zM82.9 61.76c3.505-.345 9.622-6.712 6.404-8.946s-3.257 3.433-7.342 5.898c-2.724 1.643-4.362 3.858-4.917 6.645 1.566-2.169 3.518-3.368 5.855-3.598z"/>
            <path d="M64.946 64.468c-4.404-2.086-11.743-7.034-10.46-9.416 1.285-2.381 7.39-.159 7.964 2.899.382 2.038 4.919 5.408 13.611 10.111-4.474-1.005-8.178-2.203-11.115-3.594zM63.786 71.803c-3.471 1.004-15.367 3.223-16.529-1.015-1.161-4.238 3.213-5.747 4.703-3.016.993 1.82 8.63 2.087 22.91.8a4174.1 4174.1 0 0 1-11.084 3.23zM79.206 59.748c2.474-1.733 4.03-3.478 4.67-5.234.959-2.635.72-5.14-.533-5.597-1.254-.456-3.047 1.31-4.006 3.945-.64 1.756-.683 4.052-.13 6.886zM97.48 73.42c4.114 3.195 8.016 4.403 8.053.907.036-3.496-9.15-6.702-13.69-6.256-3.026.298-7.293.476-12.801.535 9.549 1.08 15.695 2.684 18.438 4.814z"/>
            <path d="M99.918 68.712c2.962 2.21 5.689 2.537 5.556-.869-.132-3.405-6.569-4.524-9.658-3.103-2.06.947-4.974 2.047-8.745 3.302 6.59-1.027 10.872-.804 12.847.67zM63.738 50.189c1.064-3.54.438-6.214-2.717-4.925-3.154 1.29-2.005 7.721.387 10.138 1.594 1.611 3.625 3.974 6.094 7.088-3.219-5.841-4.474-9.941-3.764-12.301zM84.906 62.427c5.44-2.479 8.637-4.589 9.593-6.33 1.433-2.612 3.043-5.52.925-6.29-2.119-.772-2.267 1.113-3.274 3.88-.671 1.844-3.086 4.758-7.244 8.74zM78.814 51.872c.738-3.645 1.556-5.842 2.456-6.59 1.35-1.122 2.851-2.38 3.588-1.103.737 1.277-.355 1.526-1.853 2.39-.999.577-2.396 2.345-4.19 5.303z"/>
        </g>
        <path d="M77.108 70.093c1.676 18.481-5.496 28.227-21.515 29.238" stroke="#979797"/>
        <path d="M132.29 102.27a17.567 17.567 0 0 1-2.893 2.269 28.643 28.643 0 0 1 3.635 4.986c-2.177.786-4.332 1.3-6.467 1.542a17.31 17.31 0 0 1 1.822 4.361 17.178 17.178 0 0 1-8.302-3.328c.437.93.793 1.908 1.067 2.932-3.345-.41-6.338-1.697-8.98-3.857.088.618.143 1.246.165 1.884-3.35-1.22-6.095-3.304-8.238-6.253-2.143-2.95-4.103-6.443-5.88-10.479l.25.086-.426-.18c4.126-1.835 7.984-3.069 11.574-3.702s7.014-.225 10.271 1.224a17.292 17.292 0 0 1-4.297 3.056c.686.135 1.37.302 2.052.498 3.567-.617 6.97-.205 10.207 1.235a17.589 17.589 0 0 1-2.807 2.215c2.502-.03 4.917.474 7.247 1.511zm-30.033-4.513-.367-.105a30.69 30.69 0 0 1-1.193-.384c.443.187.872.38 1.287.58l.273-.091zM30.877 69.048c.786.384 1.512.836 2.18 1.357a19.885 19.885 0 0 1 2.4-3.575 19.853 19.853 0 0 1 2.554 3.873c.692-.843 1.5-1.588 2.425-2.236a11.987 11.987 0 0 1-.201 6.24c.504-.51 1.061-.976 1.668-1.401.56 2.423.383 4.823-.529 7.198l.142-.39c.385-.204.784-.39 1.197-.557 0 2.487-.712 4.785-2.134 6.894-1.423 2.11-3.245 4.228-5.468 6.356a27.389 27.389 0 0 1-.004-.191l-.016.33c-2.188-2.268-3.917-4.503-5.19-6.707-1.271-2.203-1.82-4.545-1.648-7.026a12.066 12.066 0 0 1 3.03 2.089c-.076-.483-.13-.971-.164-1.466-1.256-2.191-1.798-4.52-1.626-6.987.764.372 1.471.81 2.122 1.312a11.957 11.957 0 0 1-.738-5.113z" fill="#242424"/>
    </g>
</svg>
