<svg width="55" height="55" viewBox="0 0 55 55" xmlns="http://www.w3.org/2000/svg">
    <defs>
        <linearGradient x1="50%" y1="28.402%" x2="50%" y2="100%" id="b">
            <stop stop-color="#FFF" stop-opacity="0" offset="0%"/>
            <stop stop-color="#D8D8D8" offset="100%"/>
        </linearGradient>
        <linearGradient x1="50%" y1="0%" x2="50%" y2="76.277%" id="c">
            <stop stop-color="#FFF" stop-opacity="0" offset="0%"/>
            <stop stop-color="#FFF" offset="100%"/>
        </linearGradient>
        <radialGradient cx="50%" cy="50%" fx="50%" fy="50%" r="50%" id="a">
            <stop stop-color="#FFF" stop-opacity=".406" offset="0%"/>
            <stop stop-color="#FFF" stop-opacity="0" offset="100%"/>
        </radialGradient>
    </defs>
    <g fill="none" fill-rule="evenodd">
        <circle fill="url(#a)" cx="28.816" cy="18" r="18"/>
        <path d="M14.431 50c0 1.569 4.367 3.201 7.875 2.78 3.055-.366 8.51 6.22 15.332-3.483.56-.798-13.104-1.415-13.104-2.482 0-2.761-2.748-20.462-7.718-20.462-2.3 0 0 12.592-5.597 12.592-1.734 0-6.21.519-8.105 2.077C1.323 42.494 0 45.362 0 46.082 0 48.845 14.431 45.03 14.431 50z" fill="#FFF"/>
        <path d="M44.735 49c-3.05 0-7.882 1.802-9.719 1.622-1.156-.113 0-1.74 0-2.807 0-2.761 1.83-21.462 6.8-21.462 2.3 0 2.56 15.25 4.914 16.977 2.732 2.005 7.318 1.476 7.318 2.96 0 2.761-4.343 2.71-9.313 2.71z" fill="#FFF"/>
        <g transform="translate(16.816 24)">
            <path d="M12.5 0C19.404 0 25 1.12 25 2.5c0 .172-.086.339-.25.5H25v21h-.25c-1.16 1.142-6.204 2-12.25 2S1.41 25.142.25 24H0V3h.25C.087 2.84 0 2.673 0 2.5 0 1.12 5.596 0 12.5 0z" fill="#FFF"/>
            <ellipse fill="url(#b)" cx="12.903" cy="4.315" rx="10.484" ry="1.961"/>
        </g>
        <path d="M1.5 9C2.044 9 3 8.053 3 5.568 3 3.91 2.5 2.055 1.5 0 .5 2.055 0 3.91 0 5.568 0 8.053.956 9 1.5 9z" fill="url(#c)" transform="translate(27.816 13)"/>
        <path d="M29.316 20c.276 0 .5-.303.5-1.263 0-.64-.167-1.218-.5-1.737a3.145 3.145 0 0 0-.5 1.737c0 .96.224 1.263.5 1.263z" fill="#FFF"/>
    </g>
</svg>
