<?xml version="1.0" encoding="UTF-8" standalone="no"?>
<svg
   width="277"
   height="223"
   viewBox="0 0 277 223"
   version="1.1"
   id="svg53"
   sodipodi:docname="group-7.svg"
   inkscape:version="1.1.2 (0a00cf5339, 2022-02-04)"
   xmlns:inkscape="http://www.inkscape.org/namespaces/inkscape"
   xmlns:sodipodi="http://sodipodi.sourceforge.net/DTD/sodipodi-0.dtd"
   xmlns="http://www.w3.org/2000/svg"
   xmlns:svg="http://www.w3.org/2000/svg">
  <sodipodi:namedview
     id="namedview55"
     pagecolor="#ffffff"
     bordercolor="#666666"
     borderopacity="1.0"
     inkscape:pageshadow="2"
     inkscape:pageopacity="0.0"
     inkscape:pagecheckerboard="0"
     showgrid="false"
     inkscape:zoom="3.5067265"
     inkscape:cx="138.44821"
     inkscape:cy="111.5"
     inkscape:window-width="1920"
     inkscape:window-height="1043"
     inkscape:window-x="0"
     inkscape:window-y="0"
     inkscape:window-maximized="1"
     inkscape:current-layer="g51" />
  <defs
     id="defs27">
    <linearGradient
       x1="50%"
       y1="0%"
       x2="50%"
       y2="100%"
       id="z82dy7zypa">
      <stop
         stop-color="#FFF"
         stop-opacity=".538"
         offset="0%"
         id="stop2" />
      <stop
         stop-color="#D8D8D8"
         stop-opacity=".868"
         offset="100%"
         id="stop4" />
    </linearGradient>
    <linearGradient
       x1="50%"
       y1="0%"
       x2="50%"
       y2="100%"
       id="9vjvozx4ib">
      <stop
         stop-color="#FFF"
         stop-opacity="0"
         offset="0%"
         id="stop7" />
      <stop
         stop-color="#FFF"
         stop-opacity=".421"
         offset="100%"
         id="stop9" />
    </linearGradient>
    <linearGradient
       x1="0%"
       y1="100%"
       x2="100%"
       y2="100%"
       id="rguy561izc">
      <stop
         stop-color="#FFF"
         stop-opacity=".169"
         offset="0%"
         id="stop12" />
      <stop
         stop-color="#FFF"
         offset="100%"
         id="stop14" />
    </linearGradient>
    <linearGradient
       x1="50%"
       y1="28.402%"
       x2="50%"
       y2="100%"
       id="hu7j4r67dd">
      <stop
         stop-color="#FFF"
         stop-opacity="0"
         offset="0%"
         id="stop17" />
      <stop
         stop-color="#D8D8D8"
         offset="100%"
         id="stop19" />
    </linearGradient>
    <linearGradient
       x1="50%"
       y1="0%"
       x2="50%"
       y2="76.277%"
       id="ienauyeaxe">
      <stop
         stop-color="#FFF"
         stop-opacity="0"
         offset="0%"
         id="stop22" />
      <stop
         stop-color="#FFF"
         offset="100%"
         id="stop24" />
    </linearGradient>
  </defs>
  <g
     fill="none"
     fill-rule="evenodd"
     id="g51">
    <path
       d="M62.61 0h152.676a1 1 0 0 1 .495.13l57.932 32.943a1 1 0 0 1-.495 1.87H3.83a1 1 0 0 1-.49-1.873L62.123.128A1 1 0 0 1 62.61 0z"
       fill="url(#z82dy7zypa)"
       transform="translate(0 101)"
       id="path29" />
    <path
       d="M1 34.5h275a1 1 0 0 1 1 1V91a1 1 0 0 1-1 1H1a1 1 0 0 1-1-1V35.5a1 1 0 0 1 1-1z"
       fill="url(#9vjvozx4ib)"
       transform="matrix(1 0 0 -1 0 227.5)"
       id="path31" />
    <path
       stroke="url(#rguy561izc)"
       d="M0 35.143h277"
       transform="translate(0 101)"
       id="path33" />
    <g
       id="g49">
      <g
         transform="translate(122 29)"
         id="g43">
        <path
           d="M12.5 0c6.58 0 11.971 1.593 12.463 3.615H25v83.166h-.036c.024.1.036.2.036.302C25 89.246 19.404 91 12.5 91S0 89.246 0 87.083c0-.102.012-.202.036-.301H0V3.615h.037C.529 1.592 5.92 0 12.5 0z"
           fill="#FFF"
           id="path39" />
        <ellipse
           fill="url(#hu7j4r67dd)"
           cx="12.903"
           cy="4.315"
           rx="10.484"
           ry="1.961"
           id="ellipse41" />
      </g>
      <path
         d="M3.5 23C4.77 23 7 20.58 7 14.229 7 9.995 5.833 5.252 3.5 0 1.167 5.252 0 9.995 0 14.229 0 20.58 2.23 23 3.5 23z"
         fill="url(#ienauyeaxe)"
         transform="translate(131)"
         id="path45" />
      <path
         d="M134.889 19.933c.859 0 1.555-.93 1.555-3.872 0-1.961-.518-3.737-1.555-5.328-1.037 1.59-1.556 3.367-1.556 5.328 0 2.943.697 3.872 1.556 3.872z"
         fill="#FFF"
         id="path47" />
    </g>
  </g>
</svg>
